# Created using Meshport (https://github.com/random-geek/meshport).
mtllib materials.mtl
v 1.000000 1.000000 0.000000
v 2.000000 1.000000 0.000000
v 2.000000 1.000000 -1.000000
v 1.000000 1.000000 -1.000000
v 1.000000 0.000000 -1.000000
v 2.000000 0.000000 -1.000000
v 2.000000 0.000000 0.000000
v 1.000000 0.000000 0.000000
v 0.000000 1.000000 -1.000000
v 1.000000 1.000000 -2.000000
v 0.000000 1.000000 -2.000000
v 0.000000 0.000000 -2.000000
v 1.000000 0.000000 -2.000000
v 0.000000 0.000000 -1.000000
v 2.000000 1.000000 -2.000000
v 2.000000 0.000000 -2.000000
v 3.000000 1.000000 -1.000000
v 3.000000 1.000000 -2.000000
v 3.000000 0.000000 -2.000000
v 3.000000 0.000000 -1.000000
v 2.000000 1.000000 -3.000000
v 1.000000 1.000000 -3.000000
v 1.000000 0.000000 -3.000000
v 2.000000 0.000000 -3.000000
vt 0.000000 0.000000
vt 1.000000 0.000000
vt 1.000000 1.000000
vt 0.000000 1.000000
vn 0.000000 1.000000 0.000000
vn 0.000000 -1.000000 0.000000
vn 1.000000 0.000000 0.000000
vn -1.000000 0.000000 0.000000
vn 0.000000 0.000000 -1.000000
vn 0.000000 0.000000 1.000000
usemtl default_blueberry_bush_leaves.png^default_blueberry_overlay.png
f 1/1/1 2/2/1 3/3/1 4/4/1
f 5/1/2 6/2/2 7/3/2 8/4/2
f 7/1/3 6/2/3 3/3/3 2/4/3
f 5/1/4 8/2/4 1/3/4 4/4/4
f 6/1/5 5/2/5 4/3/5 3/4/5
f 8/1/6 7/2/6 2/3/6 1/4/6
f 9/1/1 4/2/1 10/3/1 11/4/1
f 12/1/2 13/2/2 5/3/2 14/4/2
f 5/1/3 13/2/3 10/3/3 4/4/3
f 12/1/4 14/2/4 9/3/4 11/4/4
f 13/1/5 12/2/5 11/3/5 10/4/5
f 14/1/6 5/2/6 4/3/6 9/4/6
f 4/1/1 3/2/1 15/3/1 10/4/1
f 13/1/2 16/2/2 6/3/2 5/4/2
f 6/1/3 16/2/3 15/3/3 3/4/3
f 16/1/5 13/2/5 10/3/5 15/4/5
f 3/1/1 17/2/1 18/3/1 15/4/1
f 16/1/2 19/2/2 20/3/2 6/4/2
f 20/1/3 19/2/3 18/3/3 17/4/3
f 19/1/5 16/2/5 15/3/5 18/4/5
f 6/1/6 20/2/6 17/3/6 3/4/6
f 10/1/1 15/2/1 21/3/1 22/4/1
f 23/1/2 24/2/2 16/3/2 13/4/2
f 16/1/3 24/2/3 21/3/3 15/4/3
f 23/1/4 13/2/4 10/3/4 22/4/4
f 24/1/5 23/2/5 22/3/5 21/4/5
