# Created using Meshport (https://github.com/random-geek/meshport).
mtllib materials.mtl
v 0.000000 0.000000 -1.000000
v 1.000000 0.000000 -1.000000
v 1.000000 0.000000 0.000000
v 0.000000 0.000000 0.000000
v 1.000000 1.000000 -1.000000
v 1.000000 1.000000 0.000000
v 0.000000 1.000000 0.000000
v 0.000000 1.000000 -1.000000
v 1.000000 2.000000 -1.000000
v 1.000000 2.000000 0.000000
v 0.000000 2.000000 0.000000
v 0.000000 2.000000 -1.000000
v 0.000000 3.000000 0.000000
v 1.000000 3.000000 0.000000
v 1.000000 3.000000 -1.000000
v 0.000000 3.000000 -1.000000
vt 0.000000 0.000000
vt 1.000000 0.000000
vt 1.000000 1.000000
vt 0.000000 1.000000
vn 0.000000 -1.000000 0.000000
vn 1.000000 0.000000 0.000000
vn -1.000000 0.000000 0.000000
vn 0.000000 0.000000 -1.000000
vn 0.000000 0.000000 1.000000
vn 0.000000 1.000000 0.000000
usemtl default_cactus_top.png
f 1/1/1 2/2/1 3/3/1 4/4/1
f 13/1/6 14/2/6 15/3/6 16/4/6
usemtl default_cactus_side.png
f 3/1/2 2/2/2 5/3/2 6/4/2
f 1/1/3 4/2/3 7/3/3 8/4/3
f 2/1/4 1/2/4 8/3/4 5/4/4
f 4/1/5 3/2/5 6/3/5 7/4/5
f 6/1/2 5/2/2 9/3/2 10/4/2
f 8/1/3 7/2/3 11/3/3 12/4/3
f 5/1/4 8/2/4 12/3/4 9/4/4
f 7/1/5 6/2/5 10/3/5 11/4/5
f 10/1/2 9/2/2 15/3/2 14/4/2
f 12/1/3 11/2/3 13/3/3 16/4/3
f 9/1/4 12/2/4 16/3/4 15/4/4
f 11/1/5 10/2/5 14/3/5 13/4/5
