# Created using Meshport (https://github.com/random-geek/meshport).
mtllib materials.mtl
v -0.194658 2.000000 0.219340
v 1.194658 2.000000 -1.219340
v 1.194658 0.000000 -1.219340
v -0.194658 0.000000 0.219340
v -0.219340 2.000000 -1.194658
v 1.219340 2.000000 0.194658
v 1.219340 0.000000 0.194658
v -0.219340 0.000000 -1.194658
vt 0.000000 1.000000
vt 1.000000 1.000000
vt 1.000000 0.000000
vt 0.000000 0.000000
vn -0.719340 0.000000 -0.694658
vn 0.694658 0.000000 -0.719340
usemtl default_fern_3.png
f 1/1/1 2/2/1 3/3/1 4/4/1
f 5/1/2 6/2/2 7/3/2 8/4/2
