# Created using Meshport (https://github.com/random-geek/meshport).
mtllib materials.mtl
v 0.000000 1.000000 0.000000
v 1.000000 1.000000 0.000000
v 1.000000 1.000000 -1.000000
v 0.000000 1.000000 -1.000000
v 0.000000 0.000000 -1.000000
v 1.000000 0.000000 -1.000000
v 1.000000 0.000000 0.000000
v 0.000000 0.000000 0.000000
v 2.000000 1.000000 0.000000
v 2.000000 1.000000 -1.000000
v 2.000000 0.000000 -1.000000
v 2.000000 0.000000 0.000000
v 0.000000 2.000000 0.000000
v 1.000000 2.000000 0.000000
v 1.000000 2.000000 -1.000000
v 0.000000 2.000000 -1.000000
v 2.000000 2.000000 0.000000
v 2.000000 2.000000 -1.000000
v 3.000000 2.000000 0.000000
v 3.000000 2.000000 -1.000000
v 3.000000 1.000000 -1.000000
v 3.000000 1.000000 0.000000
v 1.000000 1.000000 -2.000000
v 0.000000 1.000000 -2.000000
v 0.000000 0.000000 -2.000000
v 1.000000 0.000000 -2.000000
v 1.010266 1.410000 -0.992865
v 1.989734 1.410000 -2.007135
v 1.989734 0.000000 -2.007135
v 1.010266 0.000000 -0.992865
v 0.992865 1.410000 -1.989734
v 2.007135 1.410000 -1.010266
v 2.007135 0.000000 -1.010266
v 0.992865 0.000000 -1.989734
v 1.000000 2.000000 -2.000000
v 0.000000 2.000000 -2.000000
v 2.000000 2.000000 -2.000000
v 2.000000 1.000000 -2.000000
v 3.000000 2.000000 -2.000000
v 3.000000 1.000000 -2.000000
v 1.000000 1.000000 -3.000000
v 0.000000 1.000000 -3.000000
v 0.000000 0.000000 -3.000000
v 1.000000 0.000000 -3.000000
v 2.000000 1.000000 -3.000000
v 2.000000 0.000000 -3.000000
v 2.000000 0.000000 -2.000000
v 3.000000 1.000000 -3.000000
v 3.000000 0.000000 -3.000000
v 3.000000 0.000000 -2.000000
v 2.000000 2.000000 -3.000000
v 1.000000 2.000000 -3.000000
v 3.000000 2.000000 -3.000000
vt 0.000000 0.000000
vt 1.000000 0.000000
vt 1.000000 1.000000
vt 0.000000 1.000000
vn 0.000000 1.000000 0.000000
vn 0.000000 -1.000000 0.000000
vn 1.000000 0.000000 0.000000
vn -1.000000 0.000000 0.000000
vn 0.000000 0.000000 -1.000000
vn 0.000000 0.000000 1.000000
vn -0.719340 0.000000 -0.694658
vn 0.694658 0.000000 -0.719340
g default_acacia_leaves_simple.png
f 1/1/1 2/2/1 3/3/1 4/4/1
f 5/1/2 6/2/2 7/3/2 8/4/2
f 7/1/3 6/2/3 3/3/3 2/4/3
f 5/1/4 8/2/4 1/3/4 4/4/4
f 6/1/5 5/2/5 4/3/5 3/4/5
f 8/1/6 7/2/6 2/3/6 1/4/6
f 2/1/1 9/2/1 10/3/1 3/4/1
f 6/1/2 11/2/2 12/3/2 7/4/2
f 12/1/3 11/2/3 10/3/3 9/4/3
f 11/1/5 6/2/5 3/3/5 10/4/5
f 7/1/6 12/2/6 9/3/6 2/4/6
f 13/1/1 14/2/1 15/3/1 16/4/1
f 2/1/3 3/2/3 15/3/3 14/4/3
f 4/1/4 1/2/4 13/3/4 16/4/4
f 3/1/5 4/2/5 16/3/5 15/4/5
f 1/1/6 2/2/6 14/3/6 13/4/6
f 14/1/1 17/2/1 18/3/1 15/4/1
f 9/1/3 10/2/3 18/3/3 17/4/3
f 10/1/5 3/2/5 15/3/5 18/4/5
f 2/1/6 9/2/6 17/3/6 14/4/6
f 17/1/1 19/2/1 20/3/1 18/4/1
f 10/1/2 21/2/2 22/3/2 9/4/2
f 22/1/3 21/2/3 20/3/3 19/4/3
f 21/1/5 10/2/5 18/3/5 20/4/5
f 9/1/6 22/2/6 19/3/6 17/4/6
f 4/1/1 3/2/1 23/3/1 24/4/1
f 25/1/2 26/2/2 6/3/2 5/4/2
f 6/1/3 26/2/3 23/3/3 3/4/3
f 25/1/4 5/2/4 4/3/4 24/4/4
f 26/1/5 25/2/5 24/3/5 23/4/5
f 16/1/1 15/2/1 35/3/1 36/4/1
f 3/1/3 23/2/3 35/3/3 15/4/3
f 24/1/4 4/2/4 16/3/4 36/4/4
f 23/1/5 24/2/5 36/3/5 35/4/5
f 15/1/1 18/2/1 37/3/1 35/4/1
f 23/1/2 38/2/2 10/3/2 3/4/2
f 10/1/3 38/2/3 37/3/3 18/4/3
f 38/1/5 23/2/5 35/3/5 37/4/5
f 18/1/1 20/2/1 39/3/1 37/4/1
f 38/1/2 40/2/2 21/3/2 10/4/2
f 21/1/3 40/2/3 39/3/3 20/4/3
f 40/1/5 38/2/5 37/3/5 39/4/5
f 24/1/1 23/2/1 41/3/1 42/4/1
f 43/1/2 44/2/2 26/3/2 25/4/2
f 26/1/3 44/2/3 41/3/3 23/4/3
f 43/1/4 25/2/4 24/3/4 42/4/4
f 44/1/5 43/2/5 42/3/5 41/4/5
f 23/1/1 38/2/1 45/3/1 41/4/1
f 44/1/2 46/2/2 47/3/2 26/4/2
f 47/1/3 46/2/3 45/3/3 38/4/3
f 46/1/5 44/2/5 41/3/5 45/4/5
f 26/1/6 47/2/6 38/3/6 23/4/6
f 38/1/1 40/2/1 48/3/1 45/4/1
f 46/1/2 49/2/2 50/3/2 47/4/2
f 50/1/3 49/2/3 48/3/3 40/4/3
f 49/1/5 46/2/5 45/3/5 48/4/5
f 47/1/6 50/2/6 40/3/6 38/4/6
f 35/1/1 37/2/1 51/3/1 52/4/1
f 38/1/3 45/2/3 51/3/3 37/4/3
f 41/1/4 23/2/4 35/3/4 52/4/4
f 45/1/5 41/2/5 52/3/5 51/4/5
f 37/1/1 39/2/1 53/3/1 51/4/1
f 40/1/3 48/2/3 53/3/3 39/4/3
f 48/1/5 45/2/5 51/3/5 53/4/5
g default_acacia_bush_stem.png
f 27/4/7 28/3/7 29/2/7 30/1/7
f 31/4/8 32/3/8 33/2/8 34/1/8
