# Created using Meshport (https://github.com/random-geek/meshport).
mtllib materials.mtl
v 0.000000 1.000000 0.000000
v 1.000000 1.000000 0.000000
v 1.000000 1.000000 -1.000000
v 0.000000 1.000000 -1.000000
v 0.000000 0.000000 -1.000000
v 1.000000 0.000000 -1.000000
v 1.000000 0.000000 0.000000
v 0.000000 0.000000 0.000000
v 0.152671 4.125000 -0.140330
v 0.847329 4.125000 -0.859670
v 0.847329 1.000000 -0.859670
v 0.152671 1.000000 -0.140330
v 0.140330 4.125000 -0.847329
v 0.859670 4.125000 -0.152671
v 0.859670 1.000000 -0.152671
v 0.140330 1.000000 -0.847329
vt 0.000000 0.000000
vt 1.000000 0.000000
vt 1.000000 1.000000
vt 0.000000 1.000000
vt 1.000000 -2.125000
vt 0.000000 -2.125000
vn 0.000000 1.000000 0.000000
vn 0.000000 -1.000000 0.000000
vn 1.000000 0.000000 0.000000
vn -1.000000 0.000000 0.000000
vn 0.000000 0.000000 -1.000000
vn 0.000000 0.000000 1.000000
vn -0.719340 0.000000 -0.694658
vn 0.694658 0.000000 -0.719340
usemtl default_sand.png
f 1/1/1 2/2/1 3/3/1 4/4/1
f 5/1/2 6/2/2 7/3/2 8/4/2
f 7/1/3 6/2/3 3/3/3 2/4/3
f 5/1/4 8/2/4 1/3/4 4/4/4
f 6/1/5 5/2/5 4/3/5 3/4/5
f 8/1/6 7/2/6 2/3/6 1/4/6
usemtl default_kelp.png
f 9/4/7 10/3/7 11/5/7 12/6/7
f 13/4/8 14/3/8 15/5/8 16/6/8
