# Blender v2.81 (sub 16) OBJ File: 'small_to_stick.blend'
# www.blender.org
mtllib small_to_stick.mtl
o Plane
v -0.062500 0.062500 0.062500
v 0.062500 0.062500 0.062500
v -0.062500 0.062500 -0.062500
v 0.062500 0.062500 -0.062500
v -0.125000 -0.875000 0.125000
v 0.125000 -0.875000 0.125000
v -0.125000 -0.875000 -0.125000
v 0.125000 -0.875000 -0.125000
vt 0.437500 0.562500
vt 0.375000 -0.375000
vt 0.625000 -0.375000
vt 0.562500 0.562500
vt 0.437500 0.562500
vt 0.375000 -0.375000
vt 0.625000 -0.375000
vt 0.562500 0.562500
vt 0.437500 0.562500
vt 0.375000 -0.375000
vt 0.625000 -0.375000
vt 0.562500 0.562500
vt 0.437500 0.562500
vt 0.375000 -0.375000
vt 0.625000 -0.375000
vt 0.562500 0.562500
vt 0.562400 0.437600
vt 0.562400 0.562400
vt 0.437600 0.562400
vt 0.437600 0.437600
vn 0.0000 0.0665 0.9978
vn 0.0000 0.0665 -0.9978
vn -0.9978 0.0665 0.0000
vn 0.9978 0.0665 0.0000
vn 0.0000 1.0000 0.0000
usemtl Material
s off
f 1/1/1 5/2/1 6/3/1 2/4/1
f 4/5/2 8/6/2 7/7/2 3/8/2
f 3/9/3 7/10/3 5/11/3 1/12/3
f 2/13/4 6/14/4 8/15/4 4/16/4
f 1/17/5 2/18/5 4/19/5 3/20/5
