# Created using Meshport (https://github.com/random-geek/meshport).
mtllib materials.mtl
v 0.000000 1.000000 0.000000
v 1.000000 1.000000 0.000000
v 1.000000 1.000000 -1.000000
v 0.000000 1.000000 -1.000000
v 1.000000 0.000000 0.000000
v 1.000000 0.000000 -1.000000
v 0.000000 0.000000 -1.000000
v 0.000000 0.000000 0.000000
v 2.000000 1.000000 0.000000
v 2.000000 1.000000 -1.000000
v 2.000000 0.000000 0.000000
v 2.000000 0.000000 -1.000000
v 0.000000 2.000000 0.000000
v 1.000000 2.000000 0.000000
v 1.000000 2.000000 -1.000000
v 0.000000 2.000000 -1.000000
v 2.000000 2.000000 0.000000
v 2.000000 2.000000 -1.000000
v 3.000000 2.000000 0.000000
v 3.000000 2.000000 -1.000000
v 3.000000 1.000000 -1.000000
v 3.000000 1.000000 0.000000
v 1.000000 1.000000 -2.000000
v 0.000000 1.000000 -2.000000
v 1.000000 0.000000 -2.000000
v 0.000000 0.000000 -2.000000
v 1.010266 1.410000 -0.992865
v 1.989734 1.410000 -2.007135
v 1.989734 0.000000 -2.007135
v 1.010266 0.000000 -0.992865
v 0.992865 1.410000 -1.989734
v 2.007135 1.410000 -1.010266
v 2.007135 0.000000 -1.010266
v 0.992865 0.000000 -1.989734
v 1.000000 2.000000 -2.000000
v 0.000000 2.000000 -2.000000
v 2.000000 2.000000 -2.000000
v 2.000000 1.000000 -2.000000
v 3.000000 2.000000 -2.000000
v 3.000000 1.000000 -2.000000
v 1.000000 1.000000 -3.000000
v 0.000000 1.000000 -3.000000
v 1.000000 0.000000 -3.000000
v 0.000000 0.000000 -3.000000
v 2.000000 1.000000 -3.000000
v 2.000000 0.000000 -2.000000
v 2.000000 0.000000 -3.000000
v 3.000000 1.000000 -3.000000
v 3.000000 0.000000 -3.000000
v 3.000000 0.000000 -2.000000
v 2.000000 2.000000 -3.000000
v 1.000000 2.000000 -3.000000
v 3.000000 2.000000 -3.000000
vt 0.000000 0.000000
vt 1.000000 0.000000
vt 1.000000 1.000000
vt 0.000000 1.000000
vn 0.000000 1.000000 0.000000
vn 1.000000 0.000000 0.000000
vn -1.000000 0.000000 0.000000
vn 0.000000 0.000000 -1.000000
vn 0.000000 0.000000 1.000000
vn 0.000000 -1.000000 0.000000
vn -0.719340 0.000000 -0.694658
vn 0.694658 0.000000 -0.719340
usemtl default_acacia_bush_stem.png
f 27/4/7 28/3/7 29/2/7 30/1/7
f 31/4/8 32/3/8 33/2/8 34/1/8
usemtl default_acacia_leaves_simple.png
f 1/1/1 2/2/1 3/3/1 4/4/1
f 5/1/2 6/2/2 3/3/2 2/4/2
f 7/1/3 8/2/3 1/3/3 4/4/3
f 6/1/4 7/2/4 4/3/4 3/4/4
f 8/1/5 5/2/5 2/3/5 1/4/5
f 2/1/1 9/2/1 10/3/1 3/4/1
f 11/1/2 12/2/2 10/3/2 9/4/2
f 12/1/4 6/2/4 3/3/4 10/4/4
f 5/1/5 11/2/5 9/3/5 2/4/5
f 13/1/1 14/2/1 15/3/1 16/4/1
f 2/1/2 3/2/2 15/3/2 14/4/2
f 4/1/3 1/2/3 13/3/3 16/4/3
f 3/1/4 4/2/4 16/3/4 15/4/4
f 1/1/5 2/2/5 14/3/5 13/4/5
f 14/1/1 17/2/1 18/3/1 15/4/1
f 9/1/2 10/2/2 18/3/2 17/4/2
f 10/1/4 3/2/4 15/3/4 18/4/4
f 2/1/5 9/2/5 17/3/5 14/4/5
f 17/1/1 19/2/1 20/3/1 18/4/1
f 10/1/6 21/2/6 22/3/6 9/4/6
f 22/1/2 21/2/2 20/3/2 19/4/2
f 21/1/4 10/2/4 18/3/4 20/4/4
f 9/1/5 22/2/5 19/3/5 17/4/5
f 4/1/1 3/2/1 23/3/1 24/4/1
f 6/1/2 25/2/2 23/3/2 3/4/2
f 26/1/3 7/2/3 4/3/3 24/4/3
f 25/1/4 26/2/4 24/3/4 23/4/4
f 16/1/1 15/2/1 35/3/1 36/4/1
f 3/1/2 23/2/2 35/3/2 15/4/2
f 24/1/3 4/2/3 16/3/3 36/4/3
f 23/1/4 24/2/4 36/3/4 35/4/4
f 15/1/1 18/2/1 37/3/1 35/4/1
f 23/1/6 38/2/6 10/3/6 3/4/6
f 10/1/2 38/2/2 37/3/2 18/4/2
f 38/1/4 23/2/4 35/3/4 37/4/4
f 18/1/1 20/2/1 39/3/1 37/4/1
f 38/1/6 40/2/6 21/3/6 10/4/6
f 21/1/2 40/2/2 39/3/2 20/4/2
f 40/1/4 38/2/4 37/3/4 39/4/4
f 24/1/1 23/2/1 41/3/1 42/4/1
f 25/1/2 43/2/2 41/3/2 23/4/2
f 44/1/3 26/2/3 24/3/3 42/4/3
f 43/1/4 44/2/4 42/3/4 41/4/4
f 23/1/1 38/2/1 45/3/1 41/4/1
f 46/1/2 47/2/2 45/3/2 38/4/2
f 47/1/4 43/2/4 41/3/4 45/4/4
f 25/1/5 46/2/5 38/3/5 23/4/5
f 38/1/1 40/2/1 48/3/1 45/4/1
f 47/1/6 49/2/6 50/3/6 46/4/6
f 50/1/2 49/2/2 48/3/2 40/4/2
f 49/1/4 47/2/4 45/3/4 48/4/4
f 46/1/5 50/2/5 40/3/5 38/4/5
f 35/1/1 37/2/1 51/3/1 52/4/1
f 38/1/2 45/2/2 51/3/2 37/4/2
f 41/1/3 23/2/3 35/3/3 52/4/3
f 45/1/4 41/2/4 52/3/4 51/4/4
f 37/1/1 39/2/1 53/3/1 51/4/1
f 40/1/2 48/2/2 53/3/2 39/4/2
f 48/1/4 45/2/4 51/3/4 53/4/4
