# Created using Meshport (https://github.com/random-geek/meshport).
mtllib materials.mtl
v 1.000000 1.000000 0.000000
v 2.000000 1.000000 0.000000
v 2.000000 1.000000 -1.000000
v 1.000000 1.000000 -1.000000
v 2.000000 0.000000 0.000000
v 2.000000 0.000000 -1.000000
v 1.000000 0.000000 -1.000000
v 1.000000 0.000000 0.000000
v 0.000000 1.000000 -1.000000
v 1.000000 1.000000 -2.000000
v 0.000000 1.000000 -2.000000
v 1.000000 0.000000 -2.000000
v 0.000000 0.000000 -2.000000
v 0.000000 0.000000 -1.000000
v 2.000000 1.000000 -2.000000
v 2.000000 0.000000 -2.000000
v 3.000000 1.000000 -1.000000
v 3.000000 1.000000 -2.000000
v 3.000000 0.000000 -1.000000
v 3.000000 0.000000 -2.000000
v 2.000000 1.000000 -3.000000
v 1.000000 1.000000 -3.000000
v 2.000000 0.000000 -3.000000
v 1.000000 0.000000 -3.000000
vt 0.000000 0.000000
vt 1.000000 0.000000
vt 1.000000 1.000000
vt 0.000000 1.000000
vn 0.000000 1.000000 0.000000
vn 1.000000 0.000000 0.000000
vn -1.000000 0.000000 0.000000
vn 0.000000 0.000000 -1.000000
vn 0.000000 0.000000 1.000000
usemtl default_blueberry_bush_leaves.png^default_blueberry_overlay.png
f 1/1/1 2/2/1 3/3/1 4/4/1
f 5/1/2 6/2/2 3/3/2 2/4/2
f 7/1/3 8/2/3 1/3/3 4/4/3
f 6/1/4 7/2/4 4/3/4 3/4/4
f 8/1/5 5/2/5 2/3/5 1/4/5
f 9/1/1 4/2/1 10/3/1 11/4/1
f 7/1/2 12/2/2 10/3/2 4/4/2
f 13/1/3 14/2/3 9/3/3 11/4/3
f 12/1/4 13/2/4 11/3/4 10/4/4
f 14/1/5 7/2/5 4/3/5 9/4/5
f 4/1/1 3/2/1 15/3/1 10/4/1
f 6/1/2 16/2/2 15/3/2 3/4/2
f 16/1/4 12/2/4 10/3/4 15/4/4
f 3/1/1 17/2/1 18/3/1 15/4/1
f 19/1/2 20/2/2 18/3/2 17/4/2
f 20/1/4 16/2/4 15/3/4 18/4/4
f 6/1/5 19/2/5 17/3/5 3/4/5
f 10/1/1 15/2/1 21/3/1 22/4/1
f 16/1/2 23/2/2 21/3/2 15/4/2
f 24/1/3 12/2/3 10/3/3 22/4/3
f 23/1/4 24/2/4 22/3/4 21/4/4
