# Created using Meshport (https://github.com/random-geek/meshport).
mtllib materials.mtl
v 1.000000 0.000000 0.000000
v 1.000000 0.000000 -1.000000
v 1.000000 1.000000 -1.000000
v 1.000000 1.000000 0.000000
v 0.000000 0.000000 -1.000000
v 0.000000 0.000000 0.000000
v 0.000000 1.000000 0.000000
v 0.000000 1.000000 -1.000000
v 1.000000 2.000000 -1.000000
v 1.000000 2.000000 0.000000
v 0.000000 2.000000 0.000000
v 0.000000 2.000000 -1.000000
v 0.000000 3.000000 0.000000
v 1.000000 3.000000 0.000000
v 1.000000 3.000000 -1.000000
v 0.000000 3.000000 -1.000000
vt 0.000000 0.000000
vt 1.000000 0.000000
vt 1.000000 1.000000
vt 0.000000 1.000000
vn 1.000000 0.000000 0.000000
vn -1.000000 0.000000 0.000000
vn 0.000000 0.000000 -1.000000
vn 0.000000 0.000000 1.000000
vn 0.000000 1.000000 0.000000
usemtl default_cactus_side.png
f 1/1/1 2/2/1 3/3/1 4/4/1
f 5/1/2 6/2/2 7/3/2 8/4/2
f 2/1/3 5/2/3 8/3/3 3/4/3
f 6/1/4 1/2/4 4/3/4 7/4/4
f 4/1/1 3/2/1 9/3/1 10/4/1
f 8/1/2 7/2/2 11/3/2 12/4/2
f 3/1/3 8/2/3 12/3/3 9/4/3
f 7/1/4 4/2/4 10/3/4 11/4/4
f 10/1/1 9/2/1 15/3/1 14/4/1
f 12/1/2 11/2/2 13/3/2 16/4/2
f 9/1/3 12/2/3 16/3/3 15/4/3
f 11/1/4 10/2/4 14/3/4 13/4/4
usemtl default_cactus_top.png
f 13/1/5 14/2/5 15/3/5 16/4/5
