# Created using Meshport (https://github.com/random-geek/meshport).
mtllib materials.mtl
v 1.000000 1.000000 0.000000
v 2.000000 1.000000 0.000000
v 2.000000 1.000000 -1.000000
v 1.000000 1.000000 -1.000000
v 2.000000 0.000000 0.000000
v 2.000000 0.000000 -1.000000
v 1.000000 0.000000 -1.000000
v 1.000000 0.000000 0.000000
v 3.000000 1.000000 0.000000
v 3.000000 1.000000 -1.000000
v 3.000000 0.000000 0.000000
v 3.000000 0.000000 -1.000000
v 0.000000 2.000000 0.000000
v 1.000000 2.000000 0.000000
v 1.000000 2.000000 -1.000000
v 0.000000 2.000000 -1.000000
v 0.000000 1.000000 -1.000000
v 0.000000 1.000000 0.000000
v 2.000000 2.000000 0.000000
v 2.000000 2.000000 -1.000000
v 1.000000 1.000000 -2.000000
v 0.000000 1.000000 -2.000000
v 1.000000 0.000000 -2.000000
v 0.000000 0.000000 -2.000000
v 0.000000 0.000000 -1.000000
v 1.010266 1.410000 -0.992865
v 1.989734 1.410000 -2.007135
v 1.989734 0.000000 -2.007135
v 1.010266 0.000000 -0.992865
v 0.992865 1.410000 -1.989734
v 2.007135 1.410000 -1.010266
v 2.007135 0.000000 -1.010266
v 0.992865 0.000000 -1.989734
v 3.000000 1.000000 -2.000000
v 2.000000 1.000000 -2.000000
v 3.000000 0.000000 -2.000000
v 2.000000 0.000000 -2.000000
v 1.000000 2.000000 -2.000000
v 0.000000 2.000000 -2.000000
v 2.000000 2.000000 -2.000000
v 3.000000 2.000000 -1.000000
v 3.000000 2.000000 -2.000000
v 1.000000 1.000000 -3.000000
v 0.000000 1.000000 -3.000000
v 1.000000 0.000000 -3.000000
v 0.000000 0.000000 -3.000000
v 2.000000 1.000000 -3.000000
v 2.000000 0.000000 -3.000000
v 3.000000 1.000000 -3.000000
v 3.000000 0.000000 -3.000000
v 3.000000 2.000000 -3.000000
v 2.000000 2.000000 -3.000000
vt 0.000000 0.000000
vt 1.000000 0.000000
vt 1.000000 1.000000
vt 0.000000 1.000000
vn 0.000000 1.000000 0.000000
vn 1.000000 0.000000 0.000000
vn -1.000000 0.000000 0.000000
vn 0.000000 0.000000 -1.000000
vn 0.000000 0.000000 1.000000
vn 0.000000 -1.000000 0.000000
vn -0.719340 0.000000 -0.694658
vn 0.694658 0.000000 -0.719340
usemtl default_pine_needles.png
f 1/1/1 2/2/1 3/3/1 4/4/1
f 5/1/2 6/2/2 3/3/2 2/4/2
f 7/1/3 8/2/3 1/3/3 4/4/3
f 6/1/4 7/2/4 4/3/4 3/4/4
f 8/1/5 5/2/5 2/3/5 1/4/5
f 2/1/1 9/2/1 10/3/1 3/4/1
f 11/1/2 12/2/2 10/3/2 9/4/2
f 12/1/4 6/2/4 3/3/4 10/4/4
f 5/1/5 11/2/5 9/3/5 2/4/5
f 13/1/1 14/2/1 15/3/1 16/4/1
f 17/1/6 4/2/6 1/3/6 18/4/6
f 1/1/2 4/2/2 15/3/2 14/4/2
f 17/1/3 18/2/3 13/3/3 16/4/3
f 4/1/4 17/2/4 16/3/4 15/4/4
f 18/1/5 1/2/5 14/3/5 13/4/5
f 14/1/1 19/2/1 20/3/1 15/4/1
f 2/1/2 3/2/2 20/3/2 19/4/2
f 3/1/4 4/2/4 15/3/4 20/4/4
f 1/1/5 2/2/5 19/3/5 14/4/5
f 17/1/1 4/2/1 21/3/1 22/4/1
f 7/1/2 23/2/2 21/3/2 4/4/2
f 24/1/3 25/2/3 17/3/3 22/4/3
f 23/1/4 24/2/4 22/3/4 21/4/4
f 25/1/5 7/2/5 4/3/5 17/4/5
f 3/1/1 10/2/1 34/3/1 35/4/1
f 12/1/2 36/2/2 34/3/2 10/4/2
f 37/1/3 6/2/3 3/3/3 35/4/3
f 36/1/4 37/2/4 35/3/4 34/4/4
f 16/1/1 15/2/1 38/3/1 39/4/1
f 4/1/2 21/2/2 38/3/2 15/4/2
f 22/1/3 17/2/3 16/3/3 39/4/3
f 21/1/4 22/2/4 39/3/4 38/4/4
f 15/1/1 20/2/1 40/3/1 38/4/1
f 21/1/6 35/2/6 3/3/6 4/4/6
f 3/1/2 35/2/2 40/3/2 20/4/2
f 35/1/4 21/2/4 38/3/4 40/4/4
f 20/1/1 41/2/1 42/3/1 40/4/1
f 10/1/2 34/2/2 42/3/2 41/4/2
f 34/1/4 35/2/4 40/3/4 42/4/4
f 3/1/5 10/2/5 41/3/5 20/4/5
f 22/1/1 21/2/1 43/3/1 44/4/1
f 23/1/2 45/2/2 43/3/2 21/4/2
f 46/1/3 24/2/3 22/3/3 44/4/3
f 45/1/4 46/2/4 44/3/4 43/4/4
f 21/1/1 35/2/1 47/3/1 43/4/1
f 37/1/2 48/2/2 47/3/2 35/4/2
f 48/1/4 45/2/4 43/3/4 47/4/4
f 23/1/5 37/2/5 35/3/5 21/4/5
f 35/1/1 34/2/1 49/3/1 47/4/1
f 36/1/2 50/2/2 49/3/2 34/4/2
f 50/1/4 48/2/4 47/3/4 49/4/4
f 40/1/1 42/2/1 51/3/1 52/4/1
f 34/1/2 49/2/2 51/3/2 42/4/2
f 47/1/3 35/2/3 40/3/3 52/4/3
f 49/1/4 47/2/4 52/3/4 51/4/4
usemtl default_pine_bush_stem.png
f 26/4/7 27/3/7 28/2/7 29/1/7
f 30/4/8 31/3/8 32/2/8 33/1/8
