# Created using Meshport (https://github.com/random-geek/meshport).
mtllib materials.mtl
v 0.000000 1.000000 0.000000
v 1.000000 1.000000 0.000000
v 1.000000 1.000000 -1.000000
v 0.000000 1.000000 -1.000000
v 0.000000 0.000000 -1.000000
v 1.000000 0.000000 -1.000000
v 1.000000 0.000000 0.000000
v 0.000000 0.000000 0.000000
v 2.000000 1.000000 0.000000
v 2.000000 1.000000 -1.000000
v 2.000000 0.000000 -1.000000
v 2.000000 0.000000 0.000000
v 3.000000 1.000000 0.000000
v 3.000000 1.000000 -1.000000
v 3.000000 0.000000 -1.000000
v 3.000000 0.000000 0.000000
v 0.000000 2.000000 0.000000
v 1.000000 2.000000 0.000000
v 1.000000 2.000000 -1.000000
v 0.000000 2.000000 -1.000000
v 2.000000 2.000000 0.000000
v 2.000000 2.000000 -1.000000
v 1.000000 1.000000 -2.000000
v 0.000000 1.000000 -2.000000
v 0.000000 0.000000 -2.000000
v 1.000000 0.000000 -2.000000
v 1.010266 1.410000 -0.992865
v 1.989734 1.410000 -2.007135
v 1.989734 0.000000 -2.007135
v 1.010266 0.000000 -0.992865
v 0.992865 1.410000 -1.989734
v 2.007135 1.410000 -1.010266
v 2.007135 0.000000 -1.010266
v 0.992865 0.000000 -1.989734
v 3.000000 1.000000 -2.000000
v 2.000000 1.000000 -2.000000
v 2.000000 0.000000 -2.000000
v 3.000000 0.000000 -2.000000
v 1.000000 2.000000 -2.000000
v 0.000000 2.000000 -2.000000
v 2.000000 2.000000 -2.000000
v 3.000000 2.000000 -1.000000
v 3.000000 2.000000 -2.000000
v 1.000000 1.000000 -3.000000
v 0.000000 1.000000 -3.000000
v 0.000000 0.000000 -3.000000
v 1.000000 0.000000 -3.000000
v 2.000000 2.000000 -3.000000
v 1.000000 2.000000 -3.000000
v 2.000000 1.000000 -3.000000
v 3.000000 2.000000 -3.000000
v 3.000000 1.000000 -3.000000
vt 0.000000 0.000000
vt 1.000000 0.000000
vt 1.000000 1.000000
vt 0.000000 1.000000
vn 0.000000 1.000000 0.000000
vn 0.000000 -1.000000 0.000000
vn 1.000000 0.000000 0.000000
vn -1.000000 0.000000 0.000000
vn 0.000000 0.000000 -1.000000
vn 0.000000 0.000000 1.000000
vn -0.719340 0.000000 -0.694658
vn 0.694658 0.000000 -0.719340
usemtl default_pine_bush_stem.png
f 27/4/7 28/3/7 29/2/7 30/1/7
f 31/4/8 32/3/8 33/2/8 34/1/8
usemtl default_pine_needles.png
f 1/1/1 2/2/1 3/3/1 4/4/1
f 5/1/2 6/2/2 7/3/2 8/4/2
f 7/1/3 6/2/3 3/3/3 2/4/3
f 5/1/4 8/2/4 1/3/4 4/4/4
f 6/1/5 5/2/5 4/3/5 3/4/5
f 8/1/6 7/2/6 2/3/6 1/4/6
f 2/1/1 9/2/1 10/3/1 3/4/1
f 6/1/2 11/2/2 12/3/2 7/4/2
f 12/1/3 11/2/3 10/3/3 9/4/3
f 11/1/5 6/2/5 3/3/5 10/4/5
f 7/1/6 12/2/6 9/3/6 2/4/6
f 9/1/1 13/2/1 14/3/1 10/4/1
f 11/1/2 15/2/2 16/3/2 12/4/2
f 16/1/3 15/2/3 14/3/3 13/4/3
f 15/1/5 11/2/5 10/3/5 14/4/5
f 12/1/6 16/2/6 13/3/6 9/4/6
f 17/1/1 18/2/1 19/3/1 20/4/1
f 2/1/3 3/2/3 19/3/3 18/4/3
f 4/1/4 1/2/4 17/3/4 20/4/4
f 3/1/5 4/2/5 20/3/5 19/4/5
f 1/1/6 2/2/6 18/3/6 17/4/6
f 18/1/1 21/2/1 22/3/1 19/4/1
f 9/1/3 10/2/3 22/3/3 21/4/3
f 10/1/5 3/2/5 19/3/5 22/4/5
f 2/1/6 9/2/6 21/3/6 18/4/6
f 4/1/1 3/2/1 23/3/1 24/4/1
f 25/1/2 26/2/2 6/3/2 5/4/2
f 6/1/3 26/2/3 23/3/3 3/4/3
f 25/1/4 5/2/4 4/3/4 24/4/4
f 26/1/5 25/2/5 24/3/5 23/4/5
f 10/1/1 14/2/1 35/3/1 36/4/1
f 37/1/2 38/2/2 15/3/2 11/4/2
f 15/1/3 38/2/3 35/3/3 14/4/3
f 37/1/4 11/2/4 10/3/4 36/4/4
f 38/1/5 37/2/5 36/3/5 35/4/5
f 20/1/1 19/2/1 39/3/1 40/4/1
f 3/1/3 23/2/3 39/3/3 19/4/3
f 24/1/4 4/2/4 20/3/4 40/4/4
f 23/1/5 24/2/5 40/3/5 39/4/5
f 19/1/1 22/2/1 41/3/1 39/4/1
f 23/1/2 36/2/2 10/3/2 3/4/2
f 10/1/3 36/2/3 41/3/3 22/4/3
f 36/1/5 23/2/5 39/3/5 41/4/5
f 22/1/1 42/2/1 43/3/1 41/4/1
f 14/1/3 35/2/3 43/3/3 42/4/3
f 35/1/5 36/2/5 41/3/5 43/4/5
f 10/1/6 14/2/6 42/3/6 22/4/6
f 24/1/1 23/2/1 44/3/1 45/4/1
f 46/1/2 47/2/2 26/3/2 25/4/2
f 26/1/3 47/2/3 44/3/3 23/4/3
f 46/1/4 25/2/4 24/3/4 45/4/4
f 47/1/5 46/2/5 45/3/5 44/4/5
f 39/1/1 41/2/1 48/3/1 49/4/1
f 44/1/2 50/2/2 36/3/2 23/4/2
f 36/1/3 50/2/3 48/3/3 41/4/3
f 44/1/4 23/2/4 39/3/4 49/4/4
f 50/1/5 44/2/5 49/3/5 48/4/5
f 41/1/1 43/2/1 51/3/1 48/4/1
f 50/1/2 52/2/2 35/3/2 36/4/2
f 35/1/3 52/2/3 51/3/3 43/4/3
f 52/1/5 50/2/5 48/3/5 51/4/5
