# Created using Meshport (https://github.com/random-geek/meshport).
mtllib materials.mtl
v 1.152671 1.000000 -1.140330
v 1.847329 1.000000 -1.859670
v 1.847329 0.000000 -1.859670
v 1.152671 0.000000 -1.140330
v 1.140330 1.000000 -1.847329
v 1.859670 1.000000 -1.152671
v 1.859670 0.000000 -1.152671
v 1.140330 0.000000 -1.847329
vt 0.000000 1.000000
vt 1.000000 1.000000
vt 1.000000 0.000000
vt 0.000000 0.000000
vn -0.719340 0.000000 -0.694658
vn 0.694658 0.000000 -0.719340
g flowers_dandelion_white.png
f 1/1/1 2/2/1 3/3/1 4/4/1
f 5/1/2 6/2/2 7/3/2 8/4/2
